<?xml version="1.0" standalone="no"?>
<!DOCTYPE svg PUBLIC "-//W3C//DTD SVG 20010904//EN"
 "http://www.w3.org/TR/2001/REC-SVG-20010904/DTD/svg10.dtd">
<svg version="1.0" xmlns="http://www.w3.org/2000/svg"
 width="500.000000pt" height="500.000000pt" viewBox="0 0 500.000000 500.000000"
 preserveAspectRatio="xMidYMid meet">

<g transform="translate(0.000000,500.000000) scale(0.100000,-0.100000)"
fill="#000000" stroke="none">
<path d="M1223 3842 c-9 -6 -11 -27 -6 -75 l6 -67 43 0 c48 0 131 -16 153 -29
11 -7 14 -94 16 -467 8 -979 17 -1601 25 -1639 28 -126 72 -190 163 -234 68
-33 152 -50 392 -81 189 -24 231 -32 388 -72 96 -24 123 -28 145 -19 47 19
313 78 427 95 61 9 166 25 234 36 200 31 291 88 342 216 l24 59 0 1055 0 1055
30 14 c17 8 65 17 108 19 l77 5 0 62 c0 48 -4 64 -16 69 -23 9 -2537 7 -2551
-2z m1445 -397 c2 -107 1 -122 -18 -147 -20 -28 -21 -40 -23 -493 l-2 -465 28
-26 28 -25 -3 -127 -3 -127 -164 -3 c-125 -2 -166 1 -173 10 -4 7 -8 64 -8
127 0 107 1 115 25 143 l26 31 -3 469 -3 469 -22 17 c-20 16 -22 26 -23 132
-1 63 -1 121 -1 128 1 10 38 12 169 10 l167 -3 3 -120z m-428 -173 c0 -55 -4
-71 -20 -85 -19 -16 -20 -29 -20 -289 0 -283 -6 -334 -38 -377 -43 -58 -73
-66 -242 -66 -147 0 -157 1 -199 25 -60 35 -81 79 -81 175 0 72 -1 76 -26 85
-23 9 -25 14 -22 57 l3 48 155 0 155 0 3 -52 c3 -47 1 -53 -17 -53 -25 0 -28
-11 -21 -68 4 -40 9 -48 33 -56 17 -6 37 -6 55 0 l27 9 3 277 c2 269 2 277
-18 288 -17 9 -20 21 -20 74 0 34 3 66 7 69 3 4 69 7 145 7 l138 0 0 -68z
m1145 -67 l0 -130 -85 -8 c-114 -10 -126 -7 -134 42 -7 43 -10 45 -88 56 l-48
6 0 -85 0 -85 113 -3 112 -3 3 -77 3 -77 -113 -3 -113 -3 0 -96 c0 -78 3 -101
18 -116 13 -15 17 -37 17 -97 l0 -77 -147 3 -148 3 -3 73 c-3 66 -1 75 20 92
l23 18 -3 269 c-2 251 -3 269 -21 283 -15 11 -20 29 -21 75 -1 33 -2 63 -1 68
0 4 139 6 309 5 l307 -3 0 -130z m83 -1218 c6 -7 12 -46 14 -86 2 -62 -1 -75
-17 -87 -17 -12 -17 -14 -2 -14 9 0 17 -1 17 -3 0 -2 -16 -40 -35 -84 -19 -45
-35 -92 -35 -106 0 -41 -18 -41 -37 0 -10 21 -18 40 -20 42 -1 1 -17 -9 -36
-23 -19 -14 -39 -26 -45 -26 -20 0 -13 42 13 92 14 26 25 54 25 62 0 8 8 20
18 25 22 14 -48 14 -178 1 -52 -5 -231 -14 -396 -21 -288 -10 -406 -9 -1049
15 -63 3 -87 2 -57 -2 51 -7 55 -9 67 -45 7 -20 17 -43 23 -50 12 -14 27 -87
18 -87 -4 0 -25 12 -48 26 -23 15 -43 23 -45 18 -2 -5 -13 -25 -25 -44 l-21
-35 -12 50 c-7 28 -27 82 -46 120 -29 60 -34 83 -37 157 -4 84 -3 88 20 96 13
5 103 2 213 -6 298 -23 1091 -20 1395 6 295 24 305 25 318 9z m-1450 -395 c2
-13 -2 -29 -8 -37 -9 -11 -7 -21 9 -44 18 -25 19 -30 5 -35 -10 -4 -21 4 -32
24 -21 36 -42 39 -42 5 0 -14 -4 -25 -10 -25 -6 0 -10 30 -10 71 l0 70 43 -3
c35 -3 43 -7 45 -26z m62 -42 c0 -56 -3 -70 -15 -70 -12 0 -15 14 -15 70 0 56
3 70 15 70 12 0 15 -14 15 -70z m149 57 c18 -22 22 -70 9 -97 -7 -13 -28 -28
-45 -34 -65 -18 -112 49 -78 113 14 27 21 31 59 31 24 0 48 -6 55 -13z m211
-1 c0 -11 -9 -13 -34 -9 -29 4 -37 1 -50 -20 -14 -20 -15 -29 -5 -51 14 -29
59 -38 59 -11 0 8 -7 15 -15 15 -8 0 -15 7 -15 15 0 10 10 15 30 15 28 0 30
-2 30 -39 0 -35 -3 -40 -28 -46 -37 -8 -78 8 -92 36 -15 27 -4 85 18 98 27 16
102 14 102 -3z m120 -5 c13 -25 13 -27 -4 -44 -12 -12 -12 -18 3 -41 l18 -27
21 52 c12 28 22 58 22 65 0 8 10 14 23 14 20 0 26 -9 41 -57 10 -32 21 -64 23
-70 3 -7 -2 -13 -10 -13 -8 0 -17 7 -21 15 -3 8 -16 15 -30 15 -13 0 -26 -7
-30 -15 -3 -9 -19 -15 -41 -15 -28 0 -38 5 -47 25 -6 14 -15 25 -20 25 -4 0
-8 -11 -8 -25 0 -18 -5 -25 -20 -25 -18 0 -20 7 -20 70 l0 70 45 0 c34 0 47
-5 55 -19z m232 -24 l28 -42 0 43 c0 35 3 42 20 42 18 0 20 -7 20 -70 0 -62
-2 -70 -19 -70 -10 0 -31 18 -47 43 l-29 42 -3 -42 c-2 -29 -8 -43 -18 -43
-11 0 -14 16 -14 70 0 60 2 70 18 70 9 0 29 -19 44 -43z m202 27 c21 -20 20
-83 -1 -106 -11 -13 -30 -18 -65 -18 l-48 0 0 70 0 70 49 0 c32 0 55 -6 65
-16z m126 6 c0 -5 -13 -10 -30 -10 -23 0 -30 -4 -30 -20 0 -15 7 -20 25 -20
14 0 25 -4 25 -10 0 -5 -11 -10 -25 -10 -18 0 -25 -5 -25 -20 0 -16 7 -20 30
-20 17 0 30 -4 30 -10 0 -5 -20 -10 -45 -10 l-45 0 0 70 0 70 45 0 c25 0 45
-4 45 -10z"/>
<path d="M3173 1880 c0 -25 2 -35 4 -22 2 12 2 32 0 45 -2 12 -4 2 -4 -23z"/>
<path d="M3201 1898 c0 -13 4 -32 9 -43 7 -17 9 -16 10 10 l1 30 24 -30 25
-30 -1 45 c-1 38 -2 41 -8 15 l-6 -29 -18 27 c-21 33 -37 35 -36 5z"/>
<path d="M3299 1899 c-10 -20 -9 -25 11 -41 30 -24 63 -8 58 30 -4 37 -51 44
-69 11z m51 -14 c0 -25 -23 -35 -35 -15 -10 16 2 40 20 40 9 0 15 -9 15 -25z"/>
<path d="M1641 1890 c0 -15 -6 -31 -13 -38 -9 -9 -9 -12 0 -12 16 0 25 23 19
52 -4 22 -4 22 -6 -2z"/>
<path d="M1681 1877 c-1 -25 4 -40 14 -43 23 -9 45 15 45 49 0 34 -8 32 -15
-3 -3 -13 -9 -28 -14 -33 -11 -11 -17 0 -24 43 -3 17 -5 13 -6 -13z"/>
<path d="M1764 1873 c7 -20 17 -38 22 -40 11 -4 39 65 30 74 -3 3 -8 -6 -12
-21 -8 -33 -20 -33 -28 -1 -4 14 -11 25 -16 25 -5 0 -3 -17 4 -37z"/>
<path d="M1840 1870 c0 -35 3 -40 23 -40 18 0 19 2 7 10 -12 8 -13 11 -1 19
11 7 11 9 0 14 -12 5 -12 7 -1 15 11 7 10 10 -3 16 -25 9 -25 9 -25 -34z"/>
<path d="M2934 1895 c-12 -29 5 -65 29 -64 17 1 18 2 5 6 -20 5 -25 23 -6 23
6 0 3 6 -7 14 -18 13 -18 13 1 24 17 10 18 11 1 12 -10 0 -20 -7 -23 -15z"/>
<path d="M3000 1890 c-15 -28 4 -62 33 -58 22 3 38 38 17 38 -6 0 -9 -4 -5 -9
10 -17 -17 -24 -32 -8 -18 17 -10 35 21 47 l21 9 -22 0 c-13 1 -27 -8 -33 -19z"/>
<path d="M3081 1884 c0 -17 6 -37 14 -44 22 -18 45 5 43 44 l-1 31 -4 -33 c-5
-42 -35 -40 -44 3 l-7 30 -1 -31z"/>
<path d="M1906 1878 c-8 -33 -7 -48 4 -48 6 0 10 10 10 23 0 21 1 20 25 -8
l24 -30 -1 45 c0 25 -3 35 -5 23 -5 -28 -20 -30 -28 -3 -8 26 -21 25 -29 -2z"/>
<path d="M2003 1860 c0 -25 2 -35 4 -22 2 12 2 32 0 45 -2 12 -4 2 -4 -23z"/>
<path d="M2042 1863 c-2 -39 0 -43 21 -42 16 1 17 3 5 6 -11 3 -18 17 -21 41
l-4 37 -1 -42z"/>
<path d="M2670 1886 c-6 -8 -10 -25 -8 -38 2 -18 9 -23 33 -23 24 0 31 5 33
24 3 15 -3 30 -14 38 -23 17 -29 16 -44 -1z m40 -31 c0 -25 -23 -35 -35 -15
-10 16 2 40 20 40 9 0 15 -9 15 -25z"/>
<path d="M2780 1873 c0 -16 5 -35 10 -43 7 -11 10 -6 10 22 0 20 6 39 13 41 6
3 2 6 -10 6 -19 1 -23 -4 -23 -26z"/>
<path d="M2845 1868 c9 -39 23 -50 47 -37 19 10 26 69 8 69 -5 0 -10 -13 -10
-30 0 -20 -5 -30 -15 -30 -10 0 -15 10 -15 30 0 17 -5 30 -11 30 -7 0 -8 -12
-4 -32z"/>
<path d="M2130 1853 c0 -28 3 -34 10 -23 13 20 13 60 0 60 -5 0 -10 -17 -10
-37z"/>
<path d="M2171 1853 c1 -24 3 -29 6 -15 5 27 14 28 31 2 19 -31 32 -24 31 18
-1 23 -3 28 -6 15 -5 -28 -14 -29 -31 -3 -19 31 -32 24 -31 -17z"/>
<path d="M2264 1879 c-4 -7 3 -19 16 -29 15 -11 19 -19 11 -24 -6 -4 -15 -4
-21 -1 -5 3 -10 1 -10 -4 0 -6 9 -11 20 -11 27 0 38 29 17 45 -22 16 -21 22 1
28 13 4 12 5 -5 6 -12 0 -25 -4 -29 -10z"/>
<path d="M2333 1879 c10 -6 18 -23 18 -42 l2 -32 4 30 c3 17 9 36 15 43 8 9 3
12 -23 12 -28 -1 -31 -2 -16 -11z"/>
<path d="M2400 1850 c0 -25 4 -39 10 -35 6 3 10 19 10 35 0 16 -4 32 -10 35
-6 4 -10 -10 -10 -35z"/>
<path d="M2438 1883 c6 -2 12 -20 12 -39 0 -19 5 -34 10 -34 6 0 10 15 10 34
0 19 6 37 13 39 6 3 -4 5 -23 5 -19 0 -29 -2 -22 -5z"/>
<path d="M2509 1853 c5 -32 10 -38 31 -38 22 0 25 4 27 40 l1 40 -6 -35 c-9
-46 -36 -47 -40 -2 -2 17 -7 32 -11 32 -4 0 -5 -17 -2 -37z"/>
<path d="M2597 1882 c6 -4 13 -23 16 -42 l4 -35 1 37 c1 20 8 39 15 41 6 3 -1
6 -18 6 -17 0 -25 -3 -18 -7z"/>
<path d="M3373 1793 c15 -2 37 -2 50 0 12 2 0 4 -28 4 -27 0 -38 -2 -22 -4z"/>
<path d="M1952 1583 c5 -26 38 -29 38 -4 0 15 -6 21 -21 21 -14 0 -19 -5 -17
-17z"/>
<path d="M2145 1580 c-35 -39 11 -102 50 -70 28 24 13 90 -20 90 -7 0 -20 -9
-30 -20z"/>
<path d="M2500 1581 c0 -12 6 -21 16 -21 9 0 14 7 12 17 -5 25 -28 28 -28 4z"/>
<path d="M2636 1565 c-9 -23 -8 -25 9 -25 17 0 19 9 6 28 -7 11 -10 10 -15 -3z"/>
<path d="M2920 1550 c0 -37 4 -50 14 -50 20 0 46 28 46 50 0 22 -26 50 -46 50
-10 0 -14 -13 -14 -50z"/>
</g>
</svg>
